<?xml version="1.0" encoding="UTF-8"?>
<svg width="11px" height="13px" viewBox="0 0 11 13" version="1.1" xmlns="http://www.w3.org/2000/svg" xmlns:xlink="http://www.w3.org/1999/xlink">
    <!-- Generator: Sketch 61 (89581) - https://sketch.com -->
    <title>Discord</title>
    <desc>Created with Sketch.</desc>
    <g id="Symbols" stroke="none" stroke-width="1" fill="none" fill-rule="evenodd">
        <g id="Footer" transform="translate(-735.000000, -42.000000)" fill="#6F6F6F" fill-rule="nonzero">
            <path d="M744.647059,42 L736.294118,42 C735.588235,42 735,42.6103286 735,43.342723 C735,43.342723 735,43.342723 735,43.342723 L735,52.1314554 C735,52.8638498 735.588235,53.4741784 736.294118,53.4741784 C736.294118,53.4741784 736.294118,53.4741784 736.294118,53.4741784 L743.411765,53.4741784 L743.058824,52.2535211 L743.882353,53.0469484 L744.647059,53.7793427 L746,55 L746,43.342723 C745.941176,42.6103286 745.411765,42 744.647059,42 C744.647059,42 744.647059,42 744.647059,42 Z M742.235294,50.4835681 C742.235294,50.4835681 742,50.1784038 741.823529,49.9342723 C742.294118,49.8122066 742.705882,49.5680751 742.941176,49.1408451 C742.705882,49.3239437 742.470588,49.4460094 742.235294,49.5070423 C741.941176,49.629108 741.647059,49.7511737 741.352941,49.8122066 C740.823529,49.9342723 740.235294,49.9342723 739.705882,49.8122066 C739.411765,49.7511737 739.058824,49.629108 738.764706,49.5070423 C738.588235,49.4460094 738.470588,49.3849765 738.294118,49.2629108 C738.294118,49.2629108 738.235294,49.2629108 738.235294,49.2018779 C738.235294,49.2018779 738.235294,49.2018779 738.235294,49.2018779 C738.117647,49.1408451 738.058824,49.0798122 738.058824,49.0798122 C738.352941,49.4460094 738.705882,49.7511737 739.176471,49.8732394 C739,50.1173709 738.764706,50.4225352 738.764706,50.4225352 C738,50.4225352 737.294118,50.056338 736.823529,49.4460094 C736.823529,48.1032864 737.176471,46.8215962 737.705882,45.6619718 C738.235294,45.2347418 738.823529,44.9906103 739.470588,44.9906103 L739.529412,45.0516432 C738.941176,45.2347418 738.352941,45.4788732 737.882353,45.9061033 C737.882353,45.9061033 738,45.8450704 738.235294,45.7230047 C738.705882,45.5399061 739.176471,45.3568075 739.647059,45.2957746 C739.705882,45.2957746 739.705882,45.2957746 739.764706,45.2957746 C740.176471,45.2347418 740.588235,45.2347418 741.058824,45.2957746 C741.705882,45.3568075 742.352941,45.600939 742.941176,45.9061033 C742.470588,45.5399061 741.941176,45.2347418 741.352941,45.0516432 L741.411765,44.9295775 C742.058824,44.9906103 742.647059,45.1737089 743.176471,45.600939 C743.764706,46.7605634 744.058824,48.1032864 744.058824,49.3849765 C743.705882,50.1173709 743,50.4835681 742.235294,50.4835681 Z M739.352941,47.4319249 C738.941176,47.370892 738.647059,47.6760563 738.588235,48.1032864 C738.529412,48.5305164 738.823529,48.8356808 739.235294,48.8967136 C739.647059,48.9577465 739.941176,48.6525822 740,48.2253521 C740,48.2253521 740,48.1643192 740,48.1643192 C740,47.7981221 739.705882,47.4319249 739.352941,47.4319249 C739.352941,47.4319249 739.352941,47.4319249 739.352941,47.4319249 Z M741.647059,47.4319249 C741.235294,47.370892 740.941176,47.6760563 740.882353,48.1032864 C740.823529,48.5305164 741.117647,48.8356808 741.529412,48.8967136 C741.941176,48.9577465 742.235294,48.6525822 742.294118,48.2253521 C742.294118,48.2253521 742.294118,48.1643192 742.294118,48.1643192 C742.294118,47.7981221 742,47.4319249 741.647059,47.4319249 C741.647059,47.4319249 741.647059,47.4319249 741.647059,47.4319249 Z" id="Discord"></path>
        </g>
    </g>
</svg>