<?xml version="1.0" encoding="UTF-8"?>
<svg width="13px" height="13px" viewBox="0 0 13 13" version="1.1" xmlns="http://www.w3.org/2000/svg" xmlns:xlink="http://www.w3.org/1999/xlink">
    <!-- Generator: Sketch 61 (89581) - https://sketch.com -->
    <title>Github</title>
    <desc>Created with Sketch.</desc>
    <g id="Symbols" stroke="none" stroke-width="1" fill="none" fill-rule="evenodd">
        <g id="Footer" transform="translate(-653.000000, -42.000000)" fill="#6F6F6F" fill-rule="nonzero">
            <path d="M665.128069,45.3184728 C664.546821,44.2976006 663.758395,43.4893746 662.762584,42.8936126 C661.766624,42.2978202 660.679334,42 659.499941,42 C658.320696,42 657.23305,42.2979114 656.237298,42.8936126 C655.241398,43.4893443 654.453002,44.2976006 653.871753,45.3184728 C653.290594,46.3393146 653,47.4540818 653,48.6627439 C653,50.1146213 653.413229,51.4201867 654.239895,52.5797743 C655.066472,53.739453 656.134287,54.5419055 657.443251,54.9872229 C657.595618,55.0162118 657.708411,54.9958223 657.781749,54.926571 C657.855117,54.8572285 657.891756,54.7703832 657.891756,54.6663999 C657.891756,54.6490491 657.890303,54.4929525 657.887487,54.1979278 C657.884582,53.9029032 657.883219,53.6455277 657.883219,53.4259229 L657.68855,53.4604422 C657.564433,53.4837488 657.407857,53.4936245 657.218821,53.4908289 C657.029874,53.4881245 656.833723,53.4678261 656.630636,53.4300858 C656.42746,53.3926798 656.238484,53.3059257 656.063558,53.1700059 C655.888721,53.0340861 655.764604,52.8561719 655.691236,52.6365367 L655.606605,52.4368959 C655.550193,52.3039844 655.461381,52.1563354 655.340051,51.9944957 C655.21872,51.8325041 655.096026,51.7226865 654.971909,51.6648606 L654.912652,51.6213772 C654.873167,51.5924794 654.836528,51.5576258 654.802646,51.5171811 C654.768793,51.4767364 654.743448,51.4362613 654.726521,51.3957254 C654.709565,51.3551591 654.723616,51.3218857 654.768822,51.2957835 C654.814029,51.2696813 654.895726,51.25701 655.01427,51.25701 L655.183474,51.2829299 C655.296327,51.306115 655.435918,51.3753663 655.602425,51.4911093 C655.768843,51.6067612 655.905647,51.7571146 656.012868,51.942109 C656.142706,52.1793077 656.299134,52.3600479 656.482597,52.4844208 C656.665912,52.6087936 656.850739,52.6708737 657.036899,52.6708737 C657.22306,52.6708737 657.383846,52.6564096 657.519316,52.6276334 C657.654638,52.5987052 657.781601,52.5552218 657.900145,52.4974263 C657.950924,52.1097525 658.089181,51.8119323 658.314797,51.6037529 C657.993225,51.569112 657.704113,51.516938 657.447312,51.4475651 C657.19066,51.3781011 656.92544,51.2653664 656.651831,51.1090571 C656.378074,50.9529605 656.150976,50.7591236 655.970477,50.5278807 C655.789949,50.2965162 655.641791,49.9927706 655.526212,49.6169173 C655.410573,49.240912 655.352738,48.807172 655.352738,48.3155756 C655.352738,47.6156176 655.575657,47.0199771 656.021405,46.52832 C655.812597,46.0020828 655.832309,45.412155 656.080603,44.7585975 C656.244234,44.7064843 656.486895,44.745592 656.808467,44.8756775 C657.130098,45.0058238 657.365585,45.1173127 657.515166,45.2097491 C657.664747,45.3021551 657.784595,45.3804617 657.874889,45.4439699 C658.399725,45.2936468 658.94134,45.2184701 659.499881,45.2184701 C660.058423,45.2184701 660.600156,45.2936468 661.125022,45.4439699 L661.446624,45.2358513 C661.666548,45.096984 661.926254,44.9697244 662.225119,44.8540422 C662.524162,44.7384207 662.752831,44.7065754 662.91089,44.7586887 C663.164697,45.4122766 663.187314,46.002174 662.978447,46.5284112 C663.424165,47.0200683 663.647173,47.6158607 663.647173,48.3156668 C663.647173,48.8072631 663.589131,49.2423706 663.47367,49.6212626 C663.35806,50.0002153 663.208628,50.3036571 663.025313,50.532226 C662.841791,50.7607645 662.61324,50.9530821 662.339631,51.1091483 C662.065963,51.265336 661.800655,51.3780707 661.544002,51.4475348 C661.287231,51.5169988 660.998119,51.5692032 660.676547,51.6039048 C660.969839,51.8640759 661.116515,52.2747524 661.116515,52.835752 L661.116515,54.6661568 C661.116515,54.7701401 661.15179,54.856955 661.222401,54.9263279 C661.292923,54.9955792 661.404293,55.0159687 661.55666,54.9869494 C662.865802,54.5416928 663.933617,53.7392099 664.760164,52.5795312 C665.586623,51.4199436 666,50.1143782 666,48.6625008 C665.999704,47.4539906 665.708961,46.3393146 665.128069,45.3184728 Z" id="Github"></path>
        </g>
    </g>
</svg>