<?xml version="1.0" encoding="UTF-8"?>
<svg width="26px" height="30px" viewBox="0 0 26 30" version="1.1" xmlns="http://www.w3.org/2000/svg" xmlns:xlink="http://www.w3.org/1999/xlink">
    <!-- Generator: Sketch 61.2 (89653) - https://sketch.com -->
    <title>IPFS</title>
    <desc>Created with Sketch.</desc>
    <defs>
        <path d="M18.5846559,17.4837156 C18.166849,17.6660427 17.9166466,18.0994382 17.9676343,18.5524277 L13.6171705,21.0640865 C13.5546266,21.0179161 13.4871302,20.9789446 13.4158719,20.9478756 L13.4109734,15.9524877 C13.8288073,15.7701336 14.0790097,15.3367922 14.028022,14.8837756 L18.3830866,12.3441332 L18.3833302,12.3442414 C18.4458741,12.3903848 18.5133976,12.4293563 18.5846559,12.4604523 L18.5846559,17.4837156 Z M12.380908,14.1620181 L8.03044423,11.6503594 C8.03915868,11.57312 8.03915868,11.49515 8.03044423,11.4179106 L12.3806645,8.9062519 L12.3810975,8.9062519 C12.7479437,9.17691435 13.2483486,9.17691435 13.6151678,8.9062519 L17.965388,11.4179106 C17.9566735,11.49515 17.9567006,11.573093 17.965388,11.6503323 L13.6149242,14.1620181 C13.248105,13.8913557 12.7477272,13.8913557 12.380908,14.1620181 L12.380908,14.1620181 Z M12.5841823,20.9756699 C12.512924,21.0067659 12.4454004,21.0457644 12.3828295,21.0919078 L8.03266344,18.5802761 C8.08362408,18.1272325 7.83342167,17.6939181 7.41561476,17.511537 L7.41561476,12.4882736 C7.48687306,12.4572047 7.55436952,12.4182061 7.61691336,12.3720357 L7.61696749,12.3719274 L11.9671607,14.8836944 C11.9161729,15.336711 12.1663754,15.7700795 12.5841823,15.9524065 L12.5841823,20.9756699 Z M12.9999865,8.07185595 L7,11.5359889 L7,18.4640111 L12.9999865,21.9281441 L19,18.4640111 L19,11.5357453 L12.9999865,8.07185595 Z" id="path-1"></path>
    </defs>
    <g id="Symbols" stroke="none" stroke-width="1" fill="none" fill-rule="evenodd">
        <g id="Global/Footer" transform="translate(-1324.000000, -33.000000)">
            <g id="icon-/-footer-/-ipfs" transform="translate(1324.000000, 33.000000)">
                <polygon id="Fill-1" fill="#4C66FF" transform="translate(13.000000, 15.000000) rotate(90.000000) translate(-13.000000, -15.000000) " points="5.5 2 -2 14.9998499 5.5 28 20.4997 28 28 14.9998499 20.4997 2"></polygon>
                <g id="IPFS">
                    <use fill="#0C0A1D" xlink:href="#path-1"></use>
                    <use fill="#FFFFFF" xlink:href="#path-1"></use>
                </g>
            </g>
        </g>
    </g>
</svg>