<?xml version="1.0" encoding="UTF-8"?>
<svg width="12px" height="10px" viewBox="0 0 12 10" version="1.1" xmlns="http://www.w3.org/2000/svg" xmlns:xlink="http://www.w3.org/1999/xlink">
    <!-- Generator: Sketch 61 (89581) - https://sketch.com -->
    <title>Medium</title>
    <desc>Created with Sketch.</desc>
    <g id="Symbols" stroke="none" stroke-width="1" fill="none" fill-rule="evenodd">
        <g id="Footer" transform="translate(-694.000000, -44.000000)" fill="#6F6F6F">
            <path d="M695.422969,46.0399765 C695.437878,45.8853517 695.381704,45.7325222 695.271709,45.6284538 L694.151261,44.2116402 L694.151261,44 L697.630252,44 L700.319328,50.1904762 L702.683473,44 L706,44 L706,44.2116402 L705.042017,45.175779 C704.959428,45.2418604 704.91846,45.3504698 704.935574,45.4579659 L704.935574,52.5420341 C704.91846,52.6495302 704.959428,52.7581396 705.042017,52.8242211 L705.977591,53.7883598 L705.977591,54 L701.271709,54 L701.271709,53.7883598 L702.240896,52.8007055 C702.336134,52.7007642 702.336134,52.6713698 702.336134,52.5185186 L702.336134,46.792475 L699.641457,53.9764844 L699.277311,53.9764844 L696.140056,46.792475 L696.140056,51.6072898 C696.113899,51.8097182 696.177947,52.0135192 696.313725,52.159906 L697.57423,53.7648442 L697.57423,53.9764844 L694,53.9764844 L694,53.7648442 L695.260504,52.159906 C695.395294,52.0132765 695.455608,51.8081236 695.422969,51.6072898 L695.422969,46.0399765 Z" id="Medium"></path>
        </g>
    </g>
</svg>