<?xml version="1.0" encoding="UTF-8"?>
<svg width="20px" height="20px" viewBox="0 0 20 20" version="1.1" xmlns="http://www.w3.org/2000/svg" xmlns:xlink="http://www.w3.org/1999/xlink">
    <!-- Generator: Sketch 61.1 (89650) - https://sketch.com -->
    <title>icon / search</title>
    <desc>Created with Sketch.</desc>
    <g id="Everest" stroke="none" stroke-width="1" fill-rule="evenodd">
        <g id="Add-project---3" transform="translate(-1003.000000, -484.000000)">
            <g id="Icon-/-Search-/-Small" transform="translate(1001.000000, 482.000000)">
                <path d="M4.34270139,4.34270139 C7.46630325,1.21909954 12.5306625,1.21909954 15.6542643,4.34270139 C18.5797413,7.26817836 18.7652995,11.8960226 16.2109388,15.0374563 L22.042849,20.8688437 L20.9116927,22 L15.0838025,16.1729656 C11.9416878,18.7670622 7.28259885,18.5941618 4.34270139,15.6542643 C1.21909954,12.5306625 1.21909954,7.46630325 4.34270139,4.34270139 Z M14.2426407,5.75735931 C11.8994949,3.41421356 8.10050506,3.41421356 5.75735931,5.75735931 C3.41421356,8.10050506 3.41421356,11.8994949 5.75735931,14.2426407 C8.10050506,16.5857864 11.8994949,16.5857864 14.2426407,14.2426407 C16.5857864,11.8994949 16.5857864,8.10050506 14.2426407,5.75735931 Z" id="Combined-Shape"></path>
            </g>
        </g>
    </g>
</svg>