<?xml version="1.0" encoding="UTF-8"?>
<svg width="13px" height="11px" viewBox="0 0 13 11" version="1.1" xmlns="http://www.w3.org/2000/svg" xmlns:xlink="http://www.w3.org/1999/xlink">
    <!-- Generator: Sketch 61 (89581) - https://sketch.com -->
    <title>Twitter</title>
    <desc>Created with Sketch.</desc>
    <g id="Symbols" stroke="none" stroke-width="1" fill="none" fill-rule="evenodd">
        <g id="Footer" transform="translate(-774.000000, -44.000000)" fill="#6F6F6F" fill-rule="nonzero">
            <path d="M787,45.2323846 C786.493506,45.4987741 785.987013,45.5875706 785.480519,45.6763671 C785.987013,45.3211811 786.409091,44.788402 786.662338,44.1668265 C786.155844,44.5220125 785.564935,44.6996055 784.974026,44.8771986 C783.961039,43.722844 782.272727,43.722844 781.175325,44.788402 L781.175325,44.788402 C780.5,45.4987741 780.162338,46.4755356 780.415584,47.4522972 C778.305195,47.3635007 776.279221,46.2979426 774.928571,44.5220125 C774.253247,45.7651636 774.590909,47.4522972 775.772727,48.2514657 C775.350649,48.2514657 774.928571,48.0738727 774.590909,47.8962797 L774.590909,47.8962797 C774.590909,49.2282272 775.435065,50.3825818 776.701299,50.6489713 C776.448052,50.7377678 776.279221,50.7377678 776.025974,50.7377678 C775.857143,50.7377678 775.688312,50.7377678 775.519481,50.6489713 C775.857143,51.8033259 776.87013,52.6024944 777.967532,52.6024944 C777.038961,53.4016629 775.857143,53.7568489 774.675325,53.7568489 L774,53.7568489 C775.181818,54.5560175 776.616883,55 778.051948,55 C782.188312,55 785.564935,51.5369363 785.649351,47.1859077 L785.649351,46.7419251 C786.155844,46.2979426 786.577922,45.8539601 787,45.2323846 Z" id="Twitter"></path>
        </g>
    </g>
</svg>