<?xml version="1.0" encoding="UTF-8"?>
<svg width="26px" height="30px" viewBox="0 0 26 30" version="1.1" xmlns="http://www.w3.org/2000/svg" xmlns:xlink="http://www.w3.org/1999/xlink">
    <!-- Generator: Sketch 61.2 (89653) - https://sketch.com -->
    <title>icon / footer / graph</title>
    <desc>Created with Sketch.</desc>
    <defs>
        <path d="M16.8527938,9.19477569 C16.4971269,9.19669614 16.2102121,9.4862996 16.2119327,9.84215849 L16.2119327,9.84215849 C16.2138609,10.1976333 16.5034644,10.4845481 16.8591312,10.4828275 L16.8591312,10.4828275 C17.2149901,10.4812834 17.5017129,10.1914879 17.4999923,9.83582102 L17.4999923,9.83582102 C17.4982561,9.48169052 17.2109572,9.19554387 16.8572108,9.19477569 L16.8572108,9.19477569 L16.8527938,9.19477569 Z M12.3449277,9.21705288 C10.2222572,9.22742329 8.50787383,10.947568 8.5,13.0660135 L8.5,13.0660135 L8.5,13.1000054 C8.51056246,15.2340065 10.2489514,16.9553035 12.3829525,16.9449797 L12.3829525,16.9449797 C14.5169536,16.9343706 16.2384426,15.1957896 16.2279285,13.0619805 L16.2279285,13.0619805 C16.2173177,10.9343169 14.4896833,9.21666879 12.3645162,9.21686083 L12.3645162,9.21686083 C12.3581788,9.21686083 12.3514572,9.21686083 12.3449277,9.21705288 L12.3449277,9.21705288 Z M9.78801297,13.0936679 C9.78113044,11.6710005 10.9285977,10.5120105 12.3514572,10.5050641 L12.3514572,10.5050641 C13.7739325,10.4979913 14.9329225,11.6456506 14.939869,13.068318 L14.939869,13.068318 C14.9469418,14.4907934 13.7990904,15.6499754 12.376615,15.656889 L12.376615,15.656889 C12.372198,15.656889 12.367973,15.656889 12.363556,15.656889 L12.363556,15.656889 C10.947034,15.656697 9.79495766,14.5119183 9.78801297,13.0936679 L9.78801297,13.0936679 Z M15.1501251,17.1185415 C15.149741,17.1193097 15.149357,17.1196938 15.1487808,17.1200779 L15.1487808,17.1200779 L12.5853677,19.7086489 C12.3351334,19.9613797 12.3372459,20.3688987 12.5899767,20.6189409 L12.5899767,20.6189409 C12.7134615,20.7412734 12.8738189,20.8033039 13.0347524,20.8052243 L13.0347524,20.8052243 L13.0506921,20.8052243 C13.2137381,20.8033039 13.3762079,20.739545 13.5000768,20.6143318 L13.5000768,20.6143318 L16.0634899,18.0259529 C16.3133401,17.7743743 16.3119958,17.3674315 16.0606092,17.1173892 L16.0606092,17.1173892 C16.0600331,17.1168131 16.059457,17.116237 16.0588808,17.1158529 L16.0588808,17.1158529 C15.9334756,16.9912158 15.7696614,16.9289934 15.6060393,16.9289934 L15.6060393,16.9289934 C15.4408809,16.9289934 15.2759144,16.9921761 15.1501251,17.1185415 L15.1501251,17.1185415 Z" id="path-1"></path>
    </defs>
    <g id="Symbols" stroke="none" stroke-width="1" fill="none" fill-rule="evenodd">
        <g id="Global/Footer" transform="translate(-1256.000000, -33.000000)">
            <g id="icon-/-footer-/-graph" transform="translate(1256.000000, 33.000000)">
                <polygon id="Fill-1-Copy-2" fill="#4C66FF" transform="translate(13.000000, 15.000000) rotate(90.000000) translate(-13.000000, -15.000000) " points="5.5 2 -2 14.9998499 5.5 28 20.4997 28 28 14.9998499 20.4997 2"></polygon>
                <g id="Fill-1">
                    <use fill="#0C0A1D" xlink:href="#path-1"></use>
                    <use fill="#FFFFFF" xlink:href="#path-1"></use>
                </g>
            </g>
        </g>
    </g>
</svg>