<?xml version="1.0" encoding="UTF-8"?>
<svg width="24px" height="24px" viewBox="0 0 24 24" version="1.1" xmlns="http://www.w3.org/2000/svg" xmlns:xlink="http://www.w3.org/1999/xlink">
    <!-- Generator: Sketch 61.1 (89650) - https://sketch.com -->
    <title>Icon / Arrow / Transfer</title>
    <desc>Created with Sketch.</desc>
    <g id="Icon-/-Arrow-/-Transfer" stroke="none" stroke-width="1" fill="none" fill-rule="evenodd">
        <path d="M13.5706876,21.555671 C13.1226628,21.1015005 12.8575988,20.8155396 12.7408115,20.6603673 L12.6751033,20.5730612 L13.9711531,19.2767973 L15.2672031,17.9805311 L10.1336013,17.9805311 L5,17.9805311 L5,16.9961714 L5,16.0118117 L10.1336013,16.0118117 L15.2672031,16.0118117 L13.972564,14.7169586 L12.6779252,13.4221038 L12.8015308,13.2609259 C12.8695139,13.1722779 13.1725668,12.8540274 13.4749816,12.5537026 L14.0248265,12.007657 L16.498633,14.481351 C18.133056,16.1156988 18.9724395,16.9736383 18.9724395,17.0098431 C18.9724395,17.0460478 18.1350525,17.9019923 16.5046481,19.5323217 C15.1473628,20.889546 14.0305896,22 14.0229302,22 C14.015271,22 13.8117617,21.8000525 13.5706876,21.555671 Z M7.49502182,9.52455163 C5.86816022,7.89761543 5.02734333,7.03812655 5.02734333,7.00207339 C5.02734333,6.96601739 5.87012719,6.10464116 7.50114979,4.47369315 L9.97495625,2 L10.5248012,2.54604534 C10.827216,2.84637021 11.1302689,3.16462071 11.198252,3.25326865 L11.3218576,3.41444662 L10.0272187,4.70930074 L8.73257965,6.00415487 L13.8661814,6.00415487 L18.9997828,6.00415487 L18.9997828,6.9885146 L18.9997828,7.97287433 L13.8661814,7.97287433 L8.73257965,7.97287433 L10.0286297,9.26913959 L11.3246795,10.5654046 L11.2589713,10.6527095 C11.106912,10.8547471 10.0180609,11.9923432 9.97673925,11.9923432 C9.96901793,11.9923432 8.85224498,10.8818369 7.49502182,9.52455163 L7.49502182,9.52455163 Z" id="Shape" fill="#FFFFFF"></path>
    </g>
</svg>